HIERARCHY
ROOT Hips
{
  OFFSET 5.84602e-005 68.8428 3.50346
  CHANNELS 6 Xposition Yposition Zposition Zrotation Xrotation Yrotation
  JOINT Spine
  {
    OFFSET 0 8.597 -4.6522
    CHANNELS 3 Zrotation Xrotation Yrotation
    JOINT Spine1
    {
      OFFSET 0 7.8454 0.4098
      CHANNELS 3 Zrotation Xrotation Yrotation
      JOINT Spine2
      {
        OFFSET 0 9.7078 -2.1609
        CHANNELS 3 Zrotation Xrotation Yrotation
        JOINT Neck
        {
          OFFSET 0 21.8761 -0.4549
          CHANNELS 3 Zrotation Xrotation Yrotation
          JOINT Head
          {
            OFFSET 0 12.3537 3.3602
            CHANNELS 3 Zrotation Xrotation Yrotation
            End Site
            {
              OFFSET 0.0001 18.9506 0.5657
            }
          }
        }
        JOINT LeftShoulder
        {
          OFFSET 2.2086 21.1115 7.2329
          CHANNELS 3 Zrotation Xrotation Yrotation
          JOINT LeftArm
          {
            OFFSET 13.1193 3.0282 -4.8998
            CHANNELS 3 Zrotation Xrotation Yrotation
            JOINT LeftForeArm
            {
              OFFSET 27.4081 -0.0973053 -0.2375
              CHANNELS 3 Zrotation Xrotation Yrotation
              JOINT LeftHand
              {
                OFFSET 22.8641 0.0662994 -0.1369
                CHANNELS 3 Zrotation Xrotation Yrotation
                JOINT LeftHandIndex1
                {
                  OFFSET 8.8614 0.775009 2.4612
                  CHANNELS 3 Zrotation Xrotation Yrotation
                  JOINT LeftHandIndex2
                  {
                    OFFSET 3.3146 -0.808304 0.5841
                    CHANNELS 3 Zrotation Xrotation Yrotation
                    JOINT LeftHandIndex3
                    {
                      OFFSET 2.2628 -0.552002 0.3989
                      CHANNELS 3 Zrotation Xrotation Yrotation
                      End Site
                      {
                        OFFSET 1.6102 -0.4807 0.2612
                      }
                    }
                  }
                }
                JOINT LeftHandMiddle1
                {
                  OFFSET 8.9937 0.895004 0.2143
                  CHANNELS 3 Zrotation Xrotation Yrotation
                  JOINT LeftHandMiddle2
                  {
                    OFFSET 4.0984 0.0113983 -0.0242
                    CHANNELS 3 Zrotation Xrotation Yrotation
                    JOINT LeftHandMiddle3
                    {
                      OFFSET 2.2716 0.00689697 -0.0138001
                      CHANNELS 3 Zrotation Xrotation Yrotation
                      End Site
                      {
                        OFFSET 2.0404 -0.1441 0.0027
                      }
                    }
                  }
                }
                JOINT LeftHandRing1
                {
                  OFFSET 8.5234 0.597198 -2.0164
                  CHANNELS 3 Zrotation Xrotation Yrotation
                  JOINT LeftHandRing2
                  {
                    OFFSET 3.7188 -0.188293 -0.2328
                    CHANNELS 3 Zrotation Xrotation Yrotation
                    JOINT LeftHandRing3
                    {
                      OFFSET 2.1191 -0.106598 -0.1332
                      CHANNELS 3 Zrotation Xrotation Yrotation
                      End Site
                      {
                        OFFSET 1.8737 -0.2304 -0.0886
                      }
                    }
                  }
                }
                JOINT LeftHandPinky1
                {
                  OFFSET 7.9094 -0.601089 -3.4825
                  CHANNELS 3 Zrotation Xrotation Yrotation
                  JOINT LeftHandPinky2
                  {
                    OFFSET 2.2874 -0.477005 -0.6314
                    CHANNELS 3 Zrotation Xrotation Yrotation
                    JOINT LeftHandPinky3
                    {
                      OFFSET 1.6774 -0.349396 -0.4633
                      CHANNELS 3 Zrotation Xrotation Yrotation
                      End Site
                      {
                        OFFSET 1.4888 -0.4091 -0.3416
                      }
                    }
                  }
                }
                JOINT LeftHandThumb1
                {
                  OFFSET 1.833 -1.3875 1.3896
                  CHANNELS 3 Zrotation Xrotation Yrotation
                  JOINT LeftHandThumb2
                  {
                    OFFSET 3.4129 -1.121 2.5732
                    CHANNELS 3 Zrotation Xrotation Yrotation
                    JOINT LeftHandThumb3
                    {
                      OFFSET 2.2474 -0.804199 1.6192
                      CHANNELS 3 Zrotation Xrotation Yrotation
                      End Site
                      {
                        OFFSET 1.6527 -0.5689 1.1317
                      }
                    }
                  }
                }
              }
            }
          }
        }
        JOINT RightShoulder
        {
          OFFSET -2.2086 21.1115 7.2329
          CHANNELS 3 Zrotation Xrotation Yrotation
          JOINT RightArm
          {
            OFFSET -13.1216 3.0287 -4.9007
            CHANNELS 3 Zrotation Xrotation Yrotation
            JOINT RightForeArm
            {
              OFFSET -27.4081 -0.0973053 -0.2375
              CHANNELS 3 Zrotation Xrotation Yrotation
              JOINT RightHand
              {
                OFFSET -22.8641 0.0664063 -0.1369
                CHANNELS 3 Zrotation Xrotation Yrotation
                JOINT RightHandIndex1
                {
                  OFFSET -8.8614 0.774994 2.4612
                  CHANNELS 3 Zrotation Xrotation Yrotation
                  JOINT RightHandIndex2
                  {
                    OFFSET -3.3146 -0.808304 0.5841
                    CHANNELS 3 Zrotation Xrotation Yrotation
                    JOINT RightHandIndex3
                    {
                      OFFSET -2.2628 -0.552002 0.3989
                      CHANNELS 3 Zrotation Xrotation Yrotation
                      End Site
                      {
                        OFFSET -1.6102 -0.4807 0.2612
                      }
                    }
                  }
                }
                JOINT RightHandMiddle1
                {
                  OFFSET -8.9937 0.894989 0.2143
                  CHANNELS 3 Zrotation Xrotation Yrotation
                  JOINT RightHandMiddle2
                  {
                    OFFSET -4.0984 0.0113983 -0.0242
                    CHANNELS 3 Zrotation Xrotation Yrotation
                    JOINT RightHandMiddle3
                    {
                      OFFSET -2.2716 0.00691223 -0.0138001
                      CHANNELS 3 Zrotation Xrotation Yrotation
                      End Site
                      {
                        OFFSET -2.0404 -0.1441 0.0027
                      }
                    }
                  }
                }
                JOINT RightHandRing1
                {
                  OFFSET -8.5234 0.597198 -2.0164
                  CHANNELS 3 Zrotation Xrotation Yrotation
                  JOINT RightHandRing2
                  {
                    OFFSET -3.7188 -0.188309 -0.2328
                    CHANNELS 3 Zrotation Xrotation Yrotation
                    JOINT RightHandRing3
                    {
                      OFFSET -2.1191 -0.106598 -0.1332
                      CHANNELS 3 Zrotation Xrotation Yrotation
                      End Site
                      {
                        OFFSET -1.8737 -0.2304 -0.0886
                      }
                    }
                  }
                }
                JOINT RightHandPinky1
                {
                  OFFSET -7.9094 -0.601105 -3.4825
                  CHANNELS 3 Zrotation Xrotation Yrotation
                  JOINT RightHandPinky2
                  {
                    OFFSET -2.2874 -0.477005 -0.6314
                    CHANNELS 3 Zrotation Xrotation Yrotation
                    JOINT RightHandPinky3
                    {
                      OFFSET -1.6774 -0.349396 -0.4633
                      CHANNELS 3 Zrotation Xrotation Yrotation
                      End Site
                      {
                        OFFSET -1.4888 -0.4091 -0.3416
                      }
                    }
                  }
                }
                JOINT RightHandThumb1
                {
                  OFFSET -1.833 -1.38751 1.3896
                  CHANNELS 3 Zrotation Xrotation Yrotation
                  JOINT RightHandThumb2
                  {
                    OFFSET -3.41299 -1.12099 2.5732
                    CHANNELS 3 Zrotation Xrotation Yrotation
                    JOINT RightHandThumb3
                    {
                      OFFSET -2.24741 -0.804108 1.6192
                      CHANNELS 3 Zrotation Xrotation Yrotation
                      End Site
                      {
                        OFFSET -1.6527 -0.5689 1.1317
                      }
                    }
                  }
                }
              }
            }
          }
        }
      }
    }
  }
  JOINT RightUpLeg
  {
    OFFSET -9.1966 3.8861 -0.7581
    CHANNELS 3 Zrotation Xrotation Yrotation
    JOINT RightLeg
    {
      OFFSET -0.7359 -41.0265 0
      CHANNELS 3 Zrotation Xrotation Yrotation
      JOINT RightFoot
      {
        OFFSET 0 -40.2855 0
        CHANNELS 3 Zrotation Xrotation Yrotation
        JOINT RightToeBase
        {
          OFFSET 0 -5.6122 11.7359
          CHANNELS 3 Zrotation Xrotation Yrotation
          End Site
          {
            OFFSET 0 0 7.8731
          }
        }
      }
    }
  }
  JOINT LeftUpLeg
  {
    OFFSET 9.1965 3.8864 -0.7581
    CHANNELS 3 Zrotation Xrotation Yrotation
    JOINT LeftLeg
    {
      OFFSET 0.7359 -41.0268 0
      CHANNELS 3 Zrotation Xrotation Yrotation
      JOINT LeftFoot
      {
        OFFSET 0 -40.2855 0
        CHANNELS 3 Zrotation Xrotation Yrotation
        JOINT LeftToeBase
        {
          OFFSET 0 -5.6122 11.7359
          CHANNELS 3 Zrotation Xrotation Yrotation
          End Site
          {
            OFFSET 0 0 7.8731
          }
        }
      }
    }
  }
}
MOTION
Frames:	7
Frame Time:	0.0333333
5.84602e-005 68.8428 3.50346 0 0 -0 0 0 -0 0 0 -0 0 0 -0 0 0 -0 0 0 -0 0 0 -0 0 0 -0 0 0 -0 0 0 -0 0 0 -0 0 0 -0 0 0 -0 0 0 -0 -0.0146107 -8.87603e-005 -2.63497e-007 2.99804e-018 -2.42657e-020 -1.42182e-022 0 0 -0 -0.0187562 -0.001176 5.858e-005 5.06224e-018 3.88251e-019 1.21329e-020 0 0 -0 -0.012269 -0.00324817 0.000675346 -1.74678e-018 3.88251e-019 -0 0 0 -0 0 0 -0 0 0 -0 0 0 -0 0 0 -0 0 0 -0 0 0 -0 0 0 -0 0 0 -0 0 0 -0 0 0 -0 0.0149955 -9.10982e-005 2.64101e-007 -9.69331e-018 1.21329e-020 -4.7394e-023 0 0 -0 0.0189956 -0.00119102 -5.96516e-005 -5.41541e-019 0 2.42657e-020 0 0 -0 0.0122698 -0.00324857 -0.000673756 -2.00796e-019 0 -1.94126e-019 0 0 -0 0 0 -0 0 0 -0 3.39842 1.33031 -0.0637918 -5.65207e-008 0.834868 -0.000436188 -3.39935 -2.16518 -0.0642563 -8.89002e-024 -1.18485e-023 -1.48106e-024 -3.39844 1.35642 0.0640283 -3.18788e-007 0.782166 -0.000588827 3.39931 -2.13858 0.0634662 1.1399e-023 0 -0 
39.736 68.4719 26.2718 0 18.9975 -0 -0.242908 1.86392 -0.192428 -0.47993 3.72866 -0.377243 -0.479929 3.72866 -0.377243 -1.63038e-005 -26.0017 -2.22223e-006 5.22218e-007 17.9984 -1.14421e-007 6.45555 10.2391 4.52714 -76.8286 -2.08019 1.30328 -28.1009 6.79126 0.118462 3.73575 4.35194 -24.6301 7.05064e-016 1.98785e-016 -0 1.40702e-015 6.4605e-016 -0 1.34801e-015 6.08778e-016 -0 7.05064e-016 1.98785e-016 -0 -0.0146867 -8.93609e-005 -5.76168e-007 -3.34828e-015 -2.23633e-016 3.18055e-015 7.05064e-016 1.98785e-016 -0 -0.0187385 -0.00117445 6.13576e-005 5.97221e-007 -1.33244e-007 1.2423e-007 7.05064e-016 1.98785e-016 -0 -0.0122786 -0.00324798 0.000675294 3.07495e-016 3.23025e-016 4.77083e-015 7.05064e-016 1.98785e-016 -0 1.40702e-015 6.4605e-016 -0 1.34801e-015 6.08778e-016 -0 3.71567 10.8379 -8.60684 74.4548 -1.85947 -4.47316 12.4033 2.79526 -0.150787 5.77012 4.92349 18.9334 3.4013e-007 -1.78394e-006 -5.40553e-007 1.76365e-008 -6.37923e-007 -1.75148e-006 3.57766e-007 -2.42186e-006 -2.29204e-006 3.4013e-007 -1.78394e-006 -5.40553e-007 0.0150075 -9.09241e-005 -4.07211e-006 3.5768e-007 -2.42216e-006 -2.29172e-006 3.4013e-007 -1.78394e-006 -5.40553e-007 0.0189836 -0.00118917 -6.09754e-005 3.57637e-007 -2.42224e-006 -2.29164e-006 3.4013e-007 -1.78394e-006 -5.40553e-007 0.012273 -0.00324809 -0.000678516 3.57647e-007 -2.42209e-006 -2.29178e-006 3.4013e-007 -1.78394e-006 -5.40553e-007 1.76365e-008 -6.37923e-007 -1.75148e-006 3.57766e-007 -2.42186e-006 -2.29204e-006 2.02471 -30.7654 -0.636824 -6.6027 7.73867 1.39729 15.0838 2.89232 -17.8254 -8.36601e-009 5.24706e-008 -4.91557e-009 7.9617 -30.374 71.7787 2.83859 11.2224 -1.07989 3.29331 8.61915 -35.6501 9.34154e-007 1.80403e-007 6.10662e-008 
39.7376 68.3064 26.269 0 18.9975 -0 -0.242461 1.63296 -0.192751 -0.479716 3.26668 -0.378815 -0.479716 3.26667 -0.378815 -1.35653e-005 -26.0019 7.03953e-006 -9.42649e-008 17.9984 4.9994e-008 6.90912 11.1752 4.42726 -76.8286 -2.08019 1.3033 -28.9001 7.07198 0.116257 4.25489 4.62647 -24.8562 -1.42876e-015 -2.98177e-016 1.59028e-015 -5.96354e-016 -3.97569e-016 1.59028e-015 2.36057e-016 4.96962e-017 1.59028e-015 -1.42876e-015 -2.98177e-016 1.59028e-015 -0.01465 -8.94016e-005 -5.35274e-008 -5.71506e-016 2.48481e-016 3.18055e-015 -1.42876e-015 -2.98177e-016 1.59028e-015 -0.0187575 -0.00117615 5.99702e-005 5.46658e-016 -8.44835e-016 -0 -1.42876e-015 -2.98177e-016 1.59028e-015 -0.0122582 -0.0032433 0.000676414 1.16165e-014 -2.83268e-015 -0 -1.42876e-015 -2.98177e-016 1.59028e-015 -5.96354e-016 -3.97569e-016 1.59028e-015 2.36057e-016 4.96962e-017 1.59028e-015 3.06113 11.8358 -8.55128 74.4627 -1.86096 -4.46356 13.3563 2.93001 -0.149429 5.19774 5.19979 19.3233 -3.97569e-016 1.59028e-015 3.18055e-015 3.97569e-016 7.95139e-016 3.18055e-015 -7.95139e-016 2.38542e-015 -0 -3.97569e-016 1.59028e-015 3.18055e-015 0.0149808 -9.37464e-005 -1.96144e-006 4.41391e-032 -7.95139e-016 3.18055e-015 -3.97569e-016 1.59028e-015 3.18055e-015 0.0190134 -0.00119066 -6.22178e-005 3.97569e-016 -7.95139e-016 3.18055e-015 -3.97569e-016 1.59028e-015 3.18055e-015 0.0123096 -0.00325815 -0.000680949 -3.97569e-016 -7.95139e-016 -3.18055e-015 -3.97569e-016 1.59028e-015 3.18055e-015 3.97569e-016 7.95139e-016 3.18055e-015 -7.95139e-016 2.38542e-015 -0 1.71356 -31.8144 -3.31975 -6.94235 9.1724 1.50158 14.7309 2.7314 -15.1462 -8.15504e-007 -1.6579e-007 1.69355e-006 8.50415 -31.0719 71.7324 3.43361 12.4435 -1.21072 2.90084 8.0531 -35.2233 -1.68967e-015 1.19271e-015 -2.54444e-014 
39.7391 68.1408 26.2663 0 18.9975 -0 -0.241979 1.40108 -0.193052 -0.479447 2.80302 -0.380352 -0.479447 2.80301 -0.380352 -1.66093e-005 -26.0015 -2.23761e-006 -2.9808e-007 17.9984 1.31814e-007 7.36647 12.1119 4.31928 -76.8286 -2.0802 1.30328 -29.6976 7.36473 0.114027 4.77561 4.89904 -25.0851 5.2181e-016 1.98785e-016 -0 4.22417e-016 2.98177e-016 -1.59028e-015 1.86361e-015 0 -0 5.2181e-016 1.98785e-016 -0 -0.0146333 -8.959e-005 -1.29832e-006 1.28216e-014 -1.78906e-015 3.18055e-015 5.2181e-016 1.98785e-016 -0 -0.018714 -0.00117348 5.94064e-005 9.93923e-016 -9.93923e-017 3.18055e-015 5.2181e-016 1.98785e-016 -0 -0.0122935 -0.00325574 0.000679029 -6.01968e-007 2.16877e-007 -2.25209e-007 5.2181e-016 1.98785e-016 -0 4.22417e-016 2.98177e-016 -1.59028e-015 1.86361e-015 0 -0 2.40194 12.835 -8.48371 74.4705 -1.86244 -4.45397 14.3091 3.0787 -0.147972 4.62289 5.47239 19.7162 -3.75812e-007 4.39291e-007 -4.69781e-007 4.41391e-032 -7.95139e-016 3.18055e-015 -7.95139e-016 -7.95139e-016 3.18055e-015 -3.75812e-007 4.39291e-007 -4.69781e-007 0.0149724 -8.81127e-005 9.98696e-007 -7.95139e-016 7.95139e-016 3.18055e-015 -3.75812e-007 4.39291e-007 -4.69781e-007 0.0189791 -0.00118985 -6.09421e-005 3.97569e-016 -7.95139e-016 -1.27222e-014 -3.75812e-007 4.39291e-007 -4.69781e-007 0.0123036 -0.00325109 -0.000681663 3.97569e-016 0 6.36111e-015 -3.75812e-007 4.39291e-007 -4.69781e-007 4.41391e-032 -7.95139e-016 3.18055e-015 -7.95139e-016 -7.95139e-016 3.18055e-015 1.33494 -32.8464 -6.06345 -7.28842 10.5863 1.61273 14.3797 2.56416 -12.4523 -1.67945e-008 1.04988e-007 -9.21265e-009 9.0383 -31.7689 71.6875 4.03622 13.6443 -1.35515 2.51157 7.49418 -34.8009 -1.39149e-015 -5.96354e-016 6.36111e-015 
39.7404 67.9753 26.2637 0 18.9975 -0 -0.241464 1.16856 -0.193335 -0.479133 2.33795 -0.381861 -0.479133 2.33795 -0.381862 -2.73761e-005 -26.0014 -8.90573e-006 2.07257e-007 17.9984 -1.43743e-007 7.82784 13.0488 4.2031 -76.8286 -2.08018 1.30329 -30.4932 7.66984 0.111744 5.29783 5.16964 -25.3166 -6.03175e-007 2.59489e-007 -2.77159e-007 2.98177e-016 -7.95139e-016 -0 -3.47873e-016 -9.93923e-016 -1.59028e-015 -6.03175e-007 2.59489e-007 -2.77159e-007 -0.0146171 -8.8511e-005 1.70648e-006 3.8763e-015 0 -1.59028e-015 -6.03175e-007 2.59489e-007 -2.77159e-007 -0.0187979 -0.00117926 5.94096e-005 -3.47873e-015 -1.98785e-016 -0 -6.03175e-007 2.59489e-007 -2.77159e-007 -0.0122387 -0.00323889 0.000673077 2.03754e-015 5.96354e-016 3.18055e-015 -6.03175e-007 2.59489e-007 -2.77159e-007 2.98177e-016 -7.95139e-016 -0 -3.47873e-016 -9.93923e-016 -1.59028e-015 1.73778 13.8348 -8.4039 74.4783 -1.86393 -4.44437 15.2613 3.24157 -0.146418 4.04558 5.74119 20.1124 -3.97569e-016 7.95139e-016 -3.18055e-015 0 0 -0 -3.97569e-016 0 -0 -3.97569e-016 7.95139e-016 -3.18055e-015 0.0150059 -9.05717e-005 3.14875e-006 7.95139e-016 7.95139e-016 -0 -3.97569e-016 7.95139e-016 -3.18055e-015 0.0189857 -0.00119248 -5.82857e-005 7.95139e-016 -2.38542e-015 -1.59028e-014 -3.97569e-016 7.95139e-016 -3.18055e-015 0.0122482 -0.00324163 -0.000675999 3.97569e-016 0 -0 -3.97569e-016 7.95139e-016 -3.18055e-015 0 0 -0 -3.97569e-016 0 -0 0.888029 -33.858 -8.86776 -7.64116 11.9808 1.73116 14.0315 2.39014 -9.7466 6.76541e-008 -2.7874e-007 1.71614e-006 9.56442 -32.465 71.6442 4.64685 14.825 -1.51315 2.12542 6.94219 -34.3827 -8.76812e-007 2.41229e-008 -4.1906e-008 
39.7416 67.8098 26.2612 0 18.9975 -0 -0.240924 0.93544 -0.193604 -0.478781 1.8717 -0.38335 -0.478781 1.87172 -0.383349 2.07228e-005 -26.0015 1.32811e-005 -1.07063e-007 17.9983 7.13083e-008 8.29347 13.9855 4.07861 -76.8286 -2.08019 1.30329 -31.2865 7.98766 0.109494 5.82154 5.43823 -25.5508 -2.04892e-007 -1.91807e-006 1.68068e-006 1.43125e-014 -2.78299e-015 -1.59028e-015 -2.04892e-007 -1.91807e-006 1.68068e-006 -2.04892e-007 -1.91807e-006 1.68068e-006 -0.0146454 -8.88489e-005 6.92703e-007 -2.04876e-007 -1.91829e-006 1.68043e-006 -2.04892e-007 -1.91807e-006 1.68068e-006 -0.0187218 -0.00117341 5.96958e-005 -2.04856e-007 -1.91835e-006 1.68037e-006 -2.04892e-007 -1.91807e-006 1.68068e-006 -0.0122788 -0.00325117 0.000677554 -2.04843e-007 -1.91825e-006 1.68048e-006 -2.04892e-007 -1.91807e-006 1.68068e-006 1.43125e-014 -2.78299e-015 -1.59028e-015 -2.04892e-007 -1.91807e-006 1.68068e-006 1.06837 14.8348 -8.31159 74.4862 -1.86541 -4.43477 16.2127 3.4189 -0.144807 3.46587 6.00611 20.5116 1.38027e-007 -5.77543e-007 6.07608e-007 1.9984e-007 -1.85289e-006 -2.91778e-006 -1.38027e-007 5.77543e-007 -6.07608e-007 1.38027e-007 -5.77543e-007 6.07608e-007 0.0150099 -9.33961e-005 -4.25613e-006 -1.38039e-007 5.77463e-007 -6.07684e-007 1.38027e-007 -5.77543e-007 6.07608e-007 0.0189931 -0.00119573 -6.06421e-005 -1.38048e-007 5.77443e-007 -6.07702e-007 1.38027e-007 -5.77543e-007 6.07608e-007 0.0122645 -0.00324606 -0.000682448 -1.38057e-007 5.77479e-007 -6.07666e-007 1.38027e-007 -5.77543e-007 6.07608e-007 1.9984e-007 -1.85289e-006 -2.91778e-006 -1.38027e-007 5.77543e-007 -6.07608e-007 0.372267 -34.8458 -11.7322 -8.00083 13.3574 1.85739 13.6873 2.20845 -7.03187 -1.47464e-008 9.18897e-008 -7.67614e-009 10.0834 -33.1603 71.6027 5.2659 15.9867 -1.68492 1.74231 6.39646 -33.9686 1.07298e-006 4.95321e-007 -6.51591e-006 
39.7425 67.6443 26.2587 0 18.9975 -0 -0.240348 0.701782 -0.193851 -0.478372 1.40441 -0.384798 -0.478372 1.40442 -0.384799 -1.61218e-006 -26.0015 7.92331e-006 1.11971e-007 17.9984 -3.28863e-008 8.76354 14.922 3.94557 -76.8286 -2.08019 1.30329 -32.0774 8.31857 0.107229 6.34677 5.70474 -25.7876 1.83876e-015 3.97569e-016 -1.59028e-015 4.47266e-016 3.97569e-016 -6.36111e-015 5.96354e-016 0 -3.18055e-015 1.83876e-015 3.97569e-016 -1.59028e-015 -0.0146253 -8.93281e-005 -1.28833e-006 6.4605e-016 -1.19271e-015 3.18055e-015 1.83876e-015 3.97569e-016 -1.59028e-015 -0.0187187 -0.00117447 5.78767e-005 -1.98785e-016 7.95139e-016 -0 1.83876e-015 3.97569e-016 -1.59028e-015 -0.0122096 -0.00323218 0.000670091 6.41727e-007 -2.49875e-008 1.03388e-007 1.83876e-015 3.97569e-016 -1.59028e-015 4.47266e-016 3.97569e-016 -6.36111e-015 5.96354e-016 0 -3.18055e-015 0.39332 15.8348 -8.2066 74.494 -1.86689 -4.42517 17.1627 3.61099 -0.143163 2.88382 6.26711 20.9138 1.98785e-016 1.59028e-015 -0 -5.96354e-016 7.95139e-016 -0 -5.96354e-016 1.59028e-015 3.18055e-015 1.98785e-016 1.59028e-015 -0 0.0149993 -9.15585e-005 -1.11765e-006 -1.98785e-016 0 -3.18055e-015 1.98785e-016 1.59028e-015 -0 0.0189652 -0.00118991 -5.76842e-005 -5.96354e-016 -1.59028e-015 -6.36111e-015 1.98785e-016 1.59028e-015 -0 0.0123129 -0.00326152 -0.00067867 1.98785e-016 7.95139e-016 -3.18055e-015 1.98785e-016 1.59028e-015 -0 -5.96354e-016 7.95139e-016 -0 -5.96354e-016 1.59028e-015 3.18055e-015 -0.21269 -35.8067 -14.6558 -8.36776 14.7178 1.99199 13.3484 2.01822 -4.31099 3.37582e-008 -2.10049e-007 1.72489e-008 10.5961 -33.8548 71.5634 5.8938 17.131 -1.87057 1.36222 5.85614 -33.5583 3.77929e-007 3.23603e-007 -6.94609e-006 
